<?xml version="1.0" encoding="UTF-8"?>
<svg preserveAspectRatio="xMidYMid meet"  id="Layer_1" data-name="Layer 1" xmlns="http://www.w3.org/2000/svg" xmlns:xlink="http://www.w3.org/1999/xlink" viewBox="0 0 1920 1080">
  <defs>
    <style>
      .cls-1 {
        fill: #fff;
      }

      .cls-2 {
        fill: url(#New_Pattern_Swatch_4);
      }

      .cls-3 {
        fill: #1f61e4;
      }

      .cls-4 {
        stroke: url(#New_Pattern_Swatch_4);
        stroke-miterlimit: 10;
        stroke-width: .5px;
      }

      .cls-4, .cls-5 {
        fill: none;
      }

      .cls-6 {
        fill: #f3a508;
      }

      .cls-7 {
        fill: #161616;
      }
    </style>
    <pattern id="New_Pattern_Swatch_4" data-name="New Pattern Swatch 4" x="0" y="0" width="100%" 360.59" height="100%" 360.59" patternUnits="userSpaceOnUse" viewBox="0 0 360.59 360.59">
      <g>
        <rect class="cls-5" y="0" width="100%" 360.59" height="100%" 360.59"/>
        <rect class="cls-6" y="0" width="100%" 360.59" height="100%" 360.59"/>
      </g>
    </pattern>
  </defs>
  <path class="cls-4" d="m1915.32,970.71c-23.52,3.62-43.19,6.18-62.77,9.65-60.59,10.88-114.28,36.54-159.62,78.22-8.29,7.64-16.82,14.77-25.58,21.42H404.22c-1.19-.9-2.49-1.77-3.9-2.61-59.78-35.68-125.87-44.19-193.4-48.32-73.08-4.52-139.28-26.95-193.78-78.22-3.37-3.13-8.55-4.32-8.46-9.93,33.93,6.18,67.62,14.07,101.79,18.2,47.9,5.75,94.65-2.38,139.7-19.15,60.83-22.71,122.84-27.56,186.47-15.11,12.83,2.52,26.32,7.32,35.3-9.03,8.7-15.82,7.37-28.75-3.85-43.34-38.77-50.6-91.04-82.25-147.45-108.48-63.91-29.7-117.65-70.85-150.77-135-4.61-8.94-8.42-18.25-13.74-29.99,29.32,19.67,54.79,39.21,82.54,54.74,45.53,25.62,95.71,36.88,147.74,38.26,65.01,1.71,124.26,20.86,178.15,56.88,10.45,6.98,19.86,12.45,31.88,2.94,11.88-9.41,19.39-18.72,15.35-36.02-14.16-60.63-47.85-109.58-89.29-154.1-47.94-51.51-83.49-109.15-90.43-181.09-1.04-10.6-.14-21.39-.14-38.88,9.41,15.97,15.54,26.52,21.81,37.02,35.5,59.5,84.21,104.35,147.98,131.87,61.2,26.37,110.72,66.81,147.64,122.17,7.55,11.4,16.49,19.24,28.6,12.64,10.55-5.7,24.1-15.3,26.38-25.42,12.88-57.31,2.9-113.24-17.2-167.51-19.2-51.79-32.03-104.73-24.9-160.14,3.56-27.56,12.54-54.45,19.05-81.63,2.14.38,4.28.71,6.42,1.09,2.42,17.53,4.27,35.11,7.41,52.51,11.21,62.48,39.11,116.85,83.3,162.13,45.52,46.76,74.37,101.74,86.58,165.6,2.37,12.5,5.65,22.96,20.67,24.48,14.92,1.52,27.66.19,36.97-14.4,30.13-47.24,44.62-99.22,48.14-154.53,4.04-63.73,12.35-126.31,50.03-180.43,12.69-18.3,28.23-34.64,42.53-51.89-6.41,42.48-17.25,82.77-17.1,123.02.09,37.16,7.5,75.84,19.76,111.01,21.43,61.68,27.33,122.83,15.07,186.65-1.67,8.65,2.04,22,8.27,27.66,10.35,9.5,23.8,13.07,38.68,2.99,51.32-34.83,86.62-82.49,113.47-137.33,36.16-73.89,85.3-134.81,164.89-165.36,2.09-.81,4.37-1.24,10.36-2.9-5.32,7.08-8.46,11.78-12.16,16.01-51.99,59.21-81.45,127.68-83.4,206.8-1.57,62.16-22.05,117.61-56.26,168.55-7.7,11.45-16.11,21.24-4.61,35.5,10.79,13.35,22.95,17.01,39.58,13.07,56.03-13.21,104.07-41.3,147.12-78.31,42.29-36.36,86.39-70,141.13-84.59,28.47-7.6,58.35-10.07,87.58-14.82.52,2.61,1.04,5.22,1.57,7.88-83.16,37.31-142.08,97.75-179.72,180.81-23.81,52.37-65.05,90.91-113,121.94-10.36,6.65-21.05,12.11-16.2,27.32,4.51,14.16,10.83,25.28,28.03,28.08,61.82,9.94,121.08,0,179.43-20.24,76.6-26.66,153.73-35.88,231.56-4.47,2.81,1.15,5.42,2.76,11.93,6.13Z"/>
  <path class="cls-3" d="m1920,0v165.27c-300.36,24.78-634.81,37.38-997.86,27.47C587.79,183.62,279.09,156.77,0,120.62V0h1920Z"/>
  <g>
    <path class="cls-1" d="m877.62,93.92l1.14,20.06-11.53.66-.92-20.18c0-4.01-.11-8.46-1.2-12.32-.69-2.43-2.04-5.19-4.4-6.33-2.36-1.15-5.44-1.09-7.77.12-5.57,2.9-4.9,10.18-4.58,15.42.56,9.12.98,18.16,1.14,27.38l-11.21.09c-.1-8.85-.46-17.87-.97-26.8-.2-3.56-.29-7.22-2.28-10.33-1.57-2.47-4.06-3.87-6.74-3.89-1.33,0-2.65.34-3.83.98-1.16.67-2.19,1.61-2.99,2.82-2.01,3.06-1.96,6.73-2.08,10.25l-.84,27.04-10.62-.23.7-27.17c.13-4.92,1.16-10.13-1.78-14.49-.87-1.28-1.9-2.14-3.25-2.74-1.35-.61-3.08-.88-4.99-.86v-10.62c2.96.03,6.18.47,9.29,1.91,3.11,1.39,5.9,3.87,7.67,6.7.07.11.13.23.2.34,1.03-.93,2.16-1.76,3.39-2.46,2.78-1.54,5.96-2.4,9.15-2.4,3.11,0,6.31.77,9.01,2.34.41.24,4.23,2.56,3.98,2.92.09-.13.19-.27.28-.4,2.88-4.33,8.43-7.16,13.54-7.48,8.83-.55,16.47,4,19.77,12.31,1.57,3.95,2.1,8.13,2.4,12.33.12,1.67.2,3.35.3,5.02Z"/>
    <path class="cls-1" d="m924.29,93.55l-30.11,1.04c.28,1.13.71,2.19,1.21,3.19.19.33.33.7.56,1.01.22.31.43.63.64.94.21.32.5.58.74.88l.37.44.43.39c1.06,1.13,2.47,1.96,3.89,2.78l1.16.52c.39.17.76.37,1.19.49.84.25,1.63.61,2.54.77,3.5.89,7.36,1.19,11.29,1.1l.5,10.61c-4.67.24-9.49.1-14.39-1-1.22-.22-2.44-.68-3.66-1.04-.61-.17-1.21-.44-1.81-.7l-1.8-.78c-.59-.31-1.17-.64-1.75-.97l-.87-.5c-.29-.17-.56-.38-.84-.57l-1.66-1.19c-.53-.44-1.03-.91-1.55-1.37-2-1.89-3.76-4.12-5.01-6.6-1.27-2.46-2.19-5.09-2.61-7.75-.15-.66-.2-1.33-.27-1.99-.07-.67-.14-1.34-.14-1.96-.01-.63-.05-1.25-.04-1.88l.06-1.91c.16-2.55.6-5.15,1.41-7.74.82-2.59,2.14-5.17,3.95-7.46,1.81-2.28,4.15-4.29,6.75-5.57,2.57-1.31,5.31-2.16,7.94-2.48,1.34-.24,2.62-.25,3.91-.3,1.28-.06,2.66.04,4.03.19,2.74.36,5.61,1.19,8.2,2.73,2.6,1.5,4.83,3.66,6.42,6.05,1.62,2.39,2.67,4.94,3.37,7.49.35,1.28.61,2.55.78,3.84.17,1.3.28,2.57.27,4h0s.05,5.13.05,5.13l-5.18.17Zm-6.37-10.4c-.48-1.52-1.13-2.9-1.94-4.01-1.67-2.34-3.88-3.55-6.96-3.92-.78-.06-1.56-.13-2.43-.06-.86.06-1.74.06-2.52.23-1.66.19-3.07.71-4.33,1.33-1.27.62-2.26,1.52-3.12,2.6-.84,1.09-1.55,2.39-2.02,3.92-.07.23-.13.48-.2.72l23.52-.81Z"/>
    <path class="cls-1" d="m986.15,65.1l-.43,52.39-.04,5.01-5.31.29-.76.06-3.31.25-1.6-3.4h0s-12.08-27.1-12.08-27.1l-5.91-13.21c-1.59-3.16-4.14-4.77-6.61-4.59-1.23.08-2.42.59-3.33,1.44-.91.85-1.56,2.05-1.84,3.53-.07.28-.15.96-.23,1.53-.08.58-.16,1.16-.23,1.76-.14,1.19-.28,2.38-.4,3.59-.26,2.41-.48,4.84-.7,7.27-.86,9.74-1.57,19.57-2.21,29.36l-10.6-.66c.63-9.89,1.32-19.74,2.18-29.64.22-2.48.44-4.95.7-7.45.12-1.24.27-2.5.42-3.76.07-.62.16-1.27.24-1.91.09-.66.14-1.2.33-2.13.62-3.35,2.3-6.77,5-9.3,2.67-2.54,6.27-4.11,9.96-4.34,3.69-.26,7.42.84,10.35,2.84,1.47.99,2.76,2.18,3.84,3.47,1.08,1.29,1.96,2.68,2.7,4.09.75,1.56,1.16,2.54,1.68,3.68l1.51,3.36,3.01,6.73,2.77,6.19.29-29.45,10.62.1Z"/>
    <path class="cls-1" d="m1050.1,120.78l-.27,10.62c-2.28-.04-4.7-.27-7.21-1.09-2.5-.78-5.08-2.3-7.03-4.39-1.96-2.09-3.26-4.55-4.04-6.87-.13-.38-.23-.76-.34-1.14-2.18,1.75-4.65,3.15-7.28,4.1-3.15,1.15-6.54,1.66-9.86,1.52-3.32-.15-6.64-.96-9.66-2.38-3.02-1.41-5.75-3.43-7.99-5.87-2.24-2.45-3.99-5.34-5.12-8.46-1.14-3.12-1.62-6.46-1.51-9.75.1-3.29.85-6.59,2.22-9.62,1.36-3.03,3.32-5.78,5.74-8.06,2.42-2.28,5.29-4.08,8.41-5.26,3.12-1.19,6.49-1.75,9.82-1.65,5.63.15,11.21,2.29,15.56,5.9.33-4.17.68-8.34,1.05-12.51.66-7.57,1.42-15.12,2.18-22.69l10.57.99-1.78,22.61c-.57,7.54-1.13,15.08-1.63,22.6-.25,3.76-.47,7.51-.65,11.24l-.12,2.79-.06,2.66c-.02,1.75.02,3.46.18,5.06.15,1.6.43,3.1.84,4.35.39,1.27.93,2.22,1.54,2.93.62.69,1.38,1.2,2.47,1.63,1.07.42,2.46.65,3.97.74Zm-20.92-22.24c.15-3.73-1.2-7.44-3.74-10.19-2.52-2.76-6.1-4.47-9.88-4.65-3.77-.2-7.55,1.14-10.38,3.7-2.83,2.55-4.58,6.21-4.77,10.06-.13,3.85,1.36,7.64,3.99,10.4,2.63,2.77,6.31,4.39,10.08,4.47,3.78.1,7.49-1.33,10.2-3.91,2.74-2.55,4.37-6.16,4.49-9.89Z"/>
    <path class="cls-1" d="m1068.51,79.57c.08,8.52.04,16.97-.13,25.46-.09,4.25-.21,8.5-.4,12.76-.09,2.1-.2,4.35-.4,6.55-.2,2.22-.45,4.44-.84,6.69-.37,2.24-.86,4.51-1.52,6.77-.66,2.27-1.48,4.54-2.56,6.77-1.09,2.22-2.44,4.4-4.08,6.39-1.64,1.99-3.56,3.77-5.65,5.25-4.2,2.98-8.88,4.69-13.4,5.78-4.54,1.08-9.02,1.57-13.42,1.86l-.67-10.6c4-.28,7.93-.75,11.59-1.64,3.64-.9,7-2.22,9.68-4.15,2.69-1.92,4.73-4.47,6.25-7.6,1.49-3.15,2.48-6.78,3.09-10.61.32-1.91.54-3.87.71-5.85.17-2,.26-3.95.34-6.06.16-4.16.27-8.33.34-12.51.1-6.52.13-13.08.08-19.6l-7.14.04-.02-11.19,12.63.03,5.5.02.05,5.44Zm-13.38-22.04c0-4.03,3.28-7.31,7.31-7.31s7.31,3.28,7.31,7.31-3.28,7.31-7.31,7.31-7.31-3.28-7.31-7.31Z"/>
    <path class="cls-1" d="m1121.32,94.38l-.2,5.13-5.15-.06-17.03-.18c-4.35-.06-8.7-.09-13.04-.11.33.89.71,1.74,1.18,2.53.87,1.45,1.97,2.72,3.28,3.78,2.61,2.13,6.14,3.41,10.07,3.82,1.94.24,4.05.26,6.15.15,1.05-.06,2.12-.14,3.18-.27.53-.06,1.06-.13,1.58-.21l.77-.12.68-.12,2.29,10.37-1.05.22-.97.18c-.64.11-1.28.21-1.91.3-1.27.18-2.55.32-3.85.42-2.59.2-5.21.25-7.95.01-2.72-.25-5.5-.78-8.22-1.74-2.72-.95-5.39-2.36-7.77-4.21-2.37-1.88-4.41-4.21-5.97-6.79-1.55-2.59-2.62-5.4-3.25-8.25-.62-2.83-.8-5.8-.66-8.48.14-2.75.56-5.55,1.42-8.35.87-2.79,2.21-5.59,4.19-8.08,1.97-2.5,4.63-4.56,7.5-5.89,2.88-1.35,5.9-1.99,8.77-2.19,1.45-.11,2.84-.1,4.24-.03,1.43.1,2.87.25,4.34.58,1.46.29,2.95.79,4.4,1.39,1.45.64,2.85,1.46,4.16,2.43,2.59,1.98,4.65,4.6,5.98,7.35,2.68,5.53,3.06,11.21,2.85,16.41Zm-10.77-5.58c-.04-.3-.07-.59-.12-.88-.3-1.9-.84-3.65-1.59-5.12-1.52-2.94-3.76-4.59-7.15-5.26-.83-.18-1.73-.26-2.65-.31-.95-.03-1.91-.03-2.81.06-.91.07-1.77.22-2.58.43-.82.2-1.57.48-2.26.82-1.38.68-2.52,1.59-3.45,2.81-.94,1.2-1.69,2.7-2.21,4.4-.26.88-.47,1.83-.62,2.81,4.65.06,9.29.12,13.94.15l11.5.1Z"/>
  </g>
  <g>
    <path class="cls-7" d="m532.94,297.14c-.83,27.2-2.33,54.61-3.99,81.74-2.26,26.99-1.46,55.4-16.46,79.98-34.17,49.08-114,25.98-116.63-34.39l25.94-1.84c1.55,35.75,47.47,49.62,68.37,21.89,8.61-14.25,9.6-33.33,10.94-50.59,1.51-22.94,2.71-46.74,3.66-69.67l-59.16-.45v-26c9.74-.07,79.45-.61,87.33-.67Z"/>
    <path class="cls-7" d="m672.31,451.33v24.27c-6.17-.02-12.91-.72-19.83-3.7-1.71-.69-3.41-1.76-5.08-2.7-1.61-1.13-3.23-2.33-4.69-3.67-.71-.71-1.4-1.43-2.09-2.17-.34-.37-.69-.73-1.01-1.11l-.87-1.19c-.58-.8-1.14-1.61-1.69-2.43-.55-.82-.93-1.67-1.39-2.51t0,0c-4.02,3.05-8.44,5.59-13.12,7.5-7.04,2.89-14.66,4.34-22.21,4.31-7.55-.03-15.15-1.54-22.15-4.47-7-2.92-13.4-7.23-18.73-12.58-5.33-5.36-9.59-11.77-12.47-18.78-2.89-7-4.34-14.58-4.35-22.1-.01-7.52,1.45-15.11,4.34-22.11,2.88-7,7.15-13.42,12.47-18.78,5.33-5.36,11.73-9.67,18.73-12.58,7-2.93,14.6-4.44,22.15-4.47,7.55-.03,15.18,1.43,22.22,4.31,7.05,2.88,13.5,7.16,18.91,12.5,5.4,5.35,9.75,11.78,12.7,18.82,2.96,7.04,4.52,14.69,4.54,22.3-.03,4.68-.63,9.38-1.77,13.94-.68,3.99-1.09,7.89-1.02,11.45.05,3.86.75,7.22,1.85,9.45,1.14,2.23,2.31,3.56,4.74,4.67,2.37,1.11,5.88,1.76,9.81,1.83Zm-39.22-41.33c.06-8.62-3.34-17.12-9.45-23.31-6.08-6.2-14.57-9.81-23.31-9.87-8.74-.06-17.33,3.44-23.55,9.63-6.24,6.16-9.85,14.75-9.87,23.55,0,8.8,3.62,17.39,9.87,23.56,6.23,6.19,14.82,9.69,23.56,9.64,8.75-.06,17.24-3.67,23.32-9.88,6.1-6.19,9.53-14.69,9.44-23.32Z"/>
    <path class="cls-7" d="m832.61,330.84l25.01,2.62-50.63,130.93-3.29,8.51-8.6-.4-13.88-.64-8.8-.41-2.67-7.79-43.68-124.69,24.98-4.4,37.12,108.02,44.45-111.76Z"/>
    <path class="cls-7" d="m921.31,505.95c-5.06.34-10.54.7-16.53.34-5.96-.4-12.61-1.47-19.1-4.68-3.22-1.58-6.3-3.66-9.02-6.08-2.76-2.41-5.01-5.22-6.93-8.06-3.81-5.76-6.06-11.76-7.54-17.51-2.92-11.57-3.27-22.51-3.14-33.15l1.04-29.96,2.25-59.92c.77-19.97,1.66-39.94,2.56-59.91l24.25,1.04c-.49,19.92-.99,39.83-1.6,59.74l-1.91,59.72-1.04,29.86c-.08,4.65-.04,9.23.28,13.68.35,4.42.95,8.71,1.93,12.6.47,1.96,1.07,3.76,1.71,5.48.71,1.62,1.41,3.23,2.27,4.48,1.68,2.64,3.56,4.32,6.02,5.63,2.46,1.28,5.8,2.12,9.76,2.47,3.97.35,8.48.23,13.37.01l1.38,24.23Z"/>
    <path class="cls-7" d="m993.92,406.06l-68.81,2.37c.65,2.58,1.61,5.01,2.76,7.3.44.75.76,1.59,1.27,2.3.5.71.99,1.43,1.47,2.16.49.72,1.14,1.32,1.68,2l.84,1.01.98.9c2.41,2.58,5.64,4.47,8.89,6.36l2.66,1.18c.88.4,1.74.84,2.72,1.11,1.93.58,3.73,1.39,5.81,1.76,7.99,2.04,16.82,2.72,25.81,2.52l1.14,24.24c-10.67.56-21.69.24-32.88-2.3-2.79-.5-5.58-1.54-8.36-2.38-1.4-.39-2.77-1.01-4.14-1.59l-4.11-1.78c-1.34-.71-2.67-1.46-4-2.21l-1.99-1.13c-.66-.38-1.28-.87-1.92-1.31l-3.79-2.72c-1.21-1-2.36-2.08-3.54-3.13-4.58-4.31-8.6-9.43-11.45-15.09-2.9-5.61-5-11.64-5.96-17.72-.34-1.52-.45-3.04-.61-4.56-.16-1.52-.33-3.07-.33-4.47-.03-1.44-.1-2.86-.09-4.31l.15-4.35c.36-5.83,1.37-11.77,3.23-17.69,1.88-5.91,4.89-11.81,9.03-17.05,4.13-5.22,9.49-9.79,15.43-12.74,5.88-2.99,12.15-4.94,18.15-5.66,3.06-.55,5.98-.56,8.93-.69,2.93-.14,6.09.09,9.2.43,6.26.83,12.83,2.71,18.75,6.23,5.95,3.44,11.03,8.37,14.67,13.82,3.7,5.45,6.11,11.3,7.7,17.12.79,2.92,1.38,5.84,1.79,8.79.4,2.97.64,5.87.63,9.15h0s.12,11.73.12,11.73l-11.84.4Zm-14.56-23.77c-1.09-3.47-2.58-6.63-4.43-9.17-3.83-5.34-8.86-8.11-15.91-8.96-1.78-.14-3.55-.3-5.54-.14-1.96.14-3.98.13-5.77.53-3.78.42-7.02,1.62-9.9,3.05-2.91,1.42-5.17,3.47-7.13,5.94-1.93,2.49-3.54,5.47-4.62,8.95-.17.53-.3,1.09-.44,1.64l53.75-1.85Z"/>
    <path class="cls-7" d="m1136.68,341.04l-.99,119.72-.1,11.45-12.14.67-1.73.13-7.57.57-3.66-7.77h0s-27.61-61.94-27.61-61.94l-13.5-30.2c-3.63-7.23-9.45-10.9-15.1-10.5-2.82.18-5.53,1.34-7.6,3.29-2.08,1.95-3.55,4.69-4.21,8.08-.16.64-.35,2.2-.53,3.49-.18,1.33-.37,2.64-.52,4.02-.32,2.72-.64,5.44-.92,8.21-.59,5.5-1.11,11.06-1.61,16.62-1.97,22.27-3.59,44.73-5.05,67.09l-24.22-1.51c1.44-22.61,3.02-45.1,4.98-67.73.5-5.66,1.01-11.32,1.61-17.02.28-2.84.62-5.71.95-8.59.15-1.43.36-2.9.56-4.36.21-1.5.32-2.74.74-4.86,1.43-7.65,5.25-15.48,11.43-21.25,6.11-5.8,14.33-9.4,22.76-9.93,8.44-.61,16.96,1.92,23.65,6.49,3.36,2.27,6.31,4.98,8.78,7.93,2.46,2.96,4.47,6.12,6.17,9.35,1.71,3.55,2.66,5.8,3.84,8.41l3.44,7.68,6.89,15.37,6.33,14.14.67-67.3,24.27.23Z"/>
    <path class="cls-7" d="m1415.16,471.15l-27.43,1.38c-6.17-29.47-11.34-59.32-20.07-88-11.09-23.13-33.56,2.98-42.2,15.74,58.89,108.45-112.28,93.99-29.02-3.54l-6.55-14.33c-6.97-15.95-26.35-10.94-31.73,3.13-12.63,29.85-22.14,61.05-32.18,91.93l-24.92-2.42c11.06-33.59,21.63-69.97,36.02-102.34,14.85-32.87,63.81-33.28,76.43,1.65,22.94-33.46,71.08-34.44,81.07,9.9,7.25,28.1,14.66,58.6,20.58,86.88Zm-106.62-47.28c-3.93,7.42-14.58,16.92-8.76,25.42,4.51,3.27,12.08,1.49,13.18-4.55,1.8-7.05-2.04-14.32-4.42-20.87Z"/>
    <path class="cls-7" d="m1512.3,406.06l-68.81,2.37c.65,2.58,1.61,5.01,2.76,7.3.44.75.76,1.59,1.27,2.3.5.71.99,1.43,1.47,2.16.49.72,1.14,1.32,1.68,2l.84,1.01.98.9c2.41,2.58,5.64,4.47,8.89,6.36l2.66,1.18c.88.4,1.74.84,2.72,1.11,1.93.58,3.73,1.39,5.81,1.76,7.99,2.04,16.82,2.72,25.81,2.52l1.14,24.24c-10.67.56-21.69.24-32.88-2.3-2.79-.5-5.58-1.54-8.36-2.38-1.4-.39-2.77-1.01-4.14-1.59l-4.11-1.78c-1.34-.71-2.67-1.46-4-2.21l-1.99-1.13c-.66-.38-1.28-.87-1.92-1.31l-3.79-2.72c-1.21-1-2.36-2.08-3.54-3.13-4.58-4.31-8.6-9.43-11.45-15.09-2.9-5.61-5-11.64-5.96-17.72-.34-1.52-.45-3.04-.61-4.56-.16-1.52-.33-3.07-.33-4.47-.03-1.44-.1-2.86-.09-4.31l.15-4.35c.36-5.83,1.37-11.77,3.23-17.69,1.88-5.91,4.89-11.81,9.03-17.05,4.13-5.22,9.49-9.79,15.43-12.74,5.88-2.99,12.15-4.94,18.15-5.66,3.06-.55,5.98-.56,8.93-.69,2.93-.14,6.09.09,9.2.43,6.26.83,12.83,2.71,18.75,6.23,5.95,3.44,11.03,8.37,14.67,13.82,3.7,5.45,6.11,11.3,7.69,17.12.79,2.92,1.39,5.84,1.79,8.79.4,2.97.64,5.87.63,9.15h0s.12,11.73.12,11.73l-11.84.4Zm-14.57-23.77c-1.09-3.47-2.58-6.63-4.43-9.17-3.83-5.34-8.86-8.11-15.91-8.96-1.78-.14-3.56-.3-5.54-.14-1.96.14-3.98.13-5.77.53-3.78.42-7.02,1.62-9.9,3.05-2.91,1.42-5.17,3.47-7.13,5.94-1.93,2.49-3.54,5.47-4.62,8.95-.17.53-.3,1.09-.44,1.64l53.75-1.85Z"/>
    <path class="cls-7" d="m713.91,579.88l-.99,119.72-.1,11.45-12.14.67-1.73.13-7.57.57-3.66-7.77h0s-27.61-61.94-27.61-61.94l-13.5-30.2c-3.63-7.23-9.45-10.9-15.1-10.5-2.82.18-5.53,1.34-7.6,3.29-2.08,1.95-3.55,4.69-4.21,8.08-.16.64-.35,2.2-.52,3.49-.18,1.33-.37,2.64-.52,4.02-.32,2.72-.64,5.44-.92,8.21-.59,5.5-1.1,11.06-1.61,16.62-1.97,22.27-3.59,44.73-5.05,67.09l-24.22-1.51c1.44-22.61,3.02-45.1,4.98-67.73.5-5.66,1.01-11.32,1.61-17.02.28-2.84.62-5.71.95-8.59.15-1.43.36-2.9.56-4.36.21-1.5.32-2.74.74-4.86,1.43-7.65,5.25-15.48,11.43-21.25,6.11-5.8,14.34-9.39,22.76-9.92,8.44-.61,16.96,1.92,23.65,6.49,3.36,2.27,6.31,4.98,8.78,7.93,2.46,2.96,4.47,6.12,6.17,9.35,1.71,3.55,2.66,5.8,3.84,8.41l3.44,7.68,6.89,15.38,6.33,14.14.67-67.3,24.27.23Z"/>
    <path class="cls-7" d="m853.03,690.17v24.27c-6.17-.02-12.91-.72-19.83-3.7-1.71-.69-3.41-1.76-5.08-2.7-1.61-1.13-3.23-2.33-4.69-3.68-.71-.71-1.4-1.43-2.09-2.17-.34-.37-.69-.73-1.01-1.11l-.87-1.19c-.58-.8-1.14-1.61-1.69-2.43-.55-.82-.93-1.67-1.38-2.51t0,0c-4.02,3.05-8.44,5.59-13.12,7.5-7.04,2.89-14.66,4.34-22.21,4.31-7.55-.03-15.15-1.54-22.15-4.47-7-2.92-13.4-7.23-18.73-12.58-5.33-5.36-9.59-11.77-12.47-18.78-2.89-7-4.34-14.58-4.35-22.1-.01-7.52,1.45-15.11,4.34-22.11,2.88-7,7.15-13.42,12.47-18.78,5.33-5.36,11.73-9.67,18.73-12.58,7-2.93,14.6-4.44,22.15-4.47,7.55-.03,15.18,1.43,22.22,4.31,7.05,2.88,13.5,7.16,18.91,12.5,5.4,5.35,9.75,11.78,12.7,18.82,2.96,7.04,4.52,14.69,4.54,22.3-.03,4.68-.63,9.38-1.77,13.94-.68,3.99-1.09,7.89-1.02,11.45.05,3.86.75,7.22,1.85,9.45,1.14,2.23,2.31,3.56,4.74,4.67,2.37,1.11,5.88,1.76,9.81,1.83Zm-39.22-41.33c.06-8.62-3.34-17.12-9.45-23.31-6.08-6.2-14.57-9.82-23.31-9.87-8.74-.06-17.33,3.44-23.55,9.63-6.24,6.16-9.85,14.75-9.87,23.55,0,8.8,3.62,17.39,9.87,23.56,6.23,6.19,14.82,9.69,23.56,9.64,8.75-.06,17.24-3.67,23.32-9.88,6.1-6.19,9.53-14.69,9.44-23.32Z"/>
    <path class="cls-7" d="m1052.02,622.55c-.02,7.66-1.55,15.37-4.52,22.47-2.96,7.11-7.33,13.59-12.76,19-5.46,5.39-11.97,9.69-19.08,12.58-7.1,2.9-14.78,4.36-22.39,4.31-7.61-.06-15.25-1.62-22.27-4.6-4.32-1.83-8.4-4.18-12.15-6.98l-2.28,94.34-25.61-.83,3.52-117.48.85-29.31c.12-9.35-.17-18.69-1.85-26.39-.45-1.87-.96-3.65-1.57-5.2-.63-1.53-1.32-2.85-2.08-3.96-1.52-2.17-3.35-3.58-6.19-4.88-1.45-.6-3.1-1.13-4.9-1.57-1.86-.39-3.78-.76-5.87-.96-4.13-.47-8.6-.6-13.17-.54l-.4-24.27c5.24-.1,10.6,0,16.22.6,2.79.26,5.7.77,8.64,1.39,2.97.69,6.02,1.6,9.1,2.89,3.08,1.33,6.19,3.08,9.06,5.32,2.86,2.23,5.47,4.93,7.51,7.85,2.06,2.91,3.63,5.97,4.86,8.97.39.98.74,1.95,1.06,2.91,4.54-3.89,9.68-7.11,15.22-9.45,7.03-2.98,14.67-4.55,22.29-4.61,15.27-.16,30.65,6.05,41.48,16.92,5.43,5.41,9.8,11.9,12.76,19.01,2.96,7.1,4.52,14.81,4.51,22.47Zm-26.38,0c.02-8.52-3.38-16.89-9.42-22.95-6-6.09-14.32-9.7-22.95-9.77-8.62-.13-17.15,3.25-23.38,9.34-5.59,5.42-9.1,12.8-9.86,20.59l-.1,4.18c.39,8.31,4.01,16.27,9.93,22.03,6.24,6.1,14.78,9.48,23.41,9.36,8.63-.09,16.99-3.67,22.96-9.81,6.04-6.07,9.46-14.43,9.41-22.96Z"/>
    <path class="cls-7" d="m1167.19,585.17l-12.72,20.67c-1.51-1-2.77-1.72-4.29-2.41-1.47-.67-3.01-1.22-4.58-1.66-.78-.22-1.57-.41-2.37-.55-.4-.09-.8-.15-1.2-.2l-.61-.09-.72-.05c-1.92-.12-3.86-.32-5.77-.42-1.87.06-3.76.04-5.61.11-1.78.26-3.63.35-5.37.7l-2.55.61-1.28.29-1.19.45-2.38.86c-.79.29-1.47.75-2.22,1.1-1.54.65-2.8,1.67-4.15,2.55-.35.2-.67.45-.95.74l-.9.81c-.58.56-1.28.99-1.77,1.65l-1.62,1.83c-.58.58-.93,1.36-1.42,2.02-1.01,1.3-1.68,2.89-2.5,4.37-.41.74-.64,1.61-.99,2.4-.3.82-.7,1.58-.88,2.47l-.69,2.58c-.26.84-.33,1.78-.51,2.67-.08.38-.12.78-.18,1.16v.73c.07,11.13.04,22.26-.04,33.38-.09,11.13-.25,22.25-.59,33.38l-24.27-.2c-.34-11.03-.5-22.05-.59-33.07-.07-11.02-.1-22.04-.04-33.07v-4.13c.02-1.37.04-2.81-.02-3.97-.04-1.23-.07-2.46-.18-3.63-.08-1.19-.17-2.37-.33-3.48-.55-4.5-1.53-8.63-3.01-11.3-.41-.57-.7-1.33-1.14-1.74l-.57-.75c-.23-.18-.44-.37-.64-.57l-.29-.32-.37-.21c-.24-.15-.47-.32-.69-.51-.26-.15-.57-.25-.84-.4-.3-.12-.49-.36-.88-.42-2.58-.98-6.54-1.29-10.89-.88l-2.97-24.09c6.61-.81,14-1.04,21.97,1.52.97.23,1.97.77,2.95,1.16.98.45,1.96.86,2.91,1.37.94.57,1.86,1.17,2.78,1.78l1.36.93,1.25,1.08c.83.72,1.64,1.47,2.44,2.22.74.79,1.41,1.61,2.09,2.44,1.45,1.64,2.4,3.39,3.51,5.13.2.37.38.75.57,1.12.61-.56,1.24-1.1,1.83-1.67,1.1-.93,2.09-2,3.3-2.78,2.35-1.66,4.69-3.37,7.26-4.59,1.27-.63,2.52-1.38,3.82-1.89l3.93-1.49,1.97-.72,2-.51,4-.98c2.66-.58,5.31-.83,7.97-1.22,2.63-.19,5.24-.25,7.86-.35,2.58.06,5.12.24,7.69.37l.96.05,1.07.12c.71.08,1.42.16,2.13.28,1.42.21,2.83.48,4.23.81,2.8.65,5.54,1.52,8.21,2.6,2.62,1.06,5.36,2.43,7.67,3.8Z"/>
    <path class="cls-7" d="m1163.25,562.39c0-9.21,7.49-16.7,16.7-16.7s16.7,7.49,16.7,16.7-7.49,16.7-16.7,16.7-16.7-7.49-16.7-16.7Zm3.89,38.56h25.62l-.68,99.57h-24.27l-.68-99.57Z"/>
    <path class="cls-7" d="m1231.76,638.99c-.18,5.34-.05,10.55-.04,15.81l.32,7.71c.06,2.6.41,5,.59,7.51.93,9.89,3.08,19.35,6.81,27.46,3.64,8.2,9.05,14.58,16,19.11,7.09,4.33,15.79,6.99,25.31,7.84l-1.8,24.2c-3.08-.33-6.15-.54-9.24-1.02l-4.66-.88-2.33-.46-2.33-.67-4.65-1.37c-1.54-.52-3.06-1.19-4.59-1.8-3.09-1.12-5.98-2.91-8.92-4.49-11.51-7.05-20.8-17.98-25.96-29.71-5.43-11.7-8.02-23.81-9.23-35.57-.21-2.92-.58-5.93-.64-8.78l-.31-8.61c.02-5.63-.07-11.31.14-16.86.58-22.31,2.33-44.22,4.41-66.09,2.05-21.89,4.7-43.56,7.72-65.39l24.05,3.22c-1.5,12.42-2.85,24.93-4.12,37.45l46.01,3.51-1.98,24.65-46.38-3.92c-.09.93-.18,1.87-.27,2.8-1.91,21.51-3.49,43.07-3.91,64.32Z"/>
    <path class="cls-7" d="m1327.3,702.73c0,9.21-7.49,16.7-16.7,16.7s-16.7-7.49-16.7-16.7,7.49-16.7,16.7-16.7,16.7,7.49,16.7,16.7Z"/>
  </g>
  <g>
    <path class="cls-7" d="m547.6,856.13h8.75c4.56,0,8.91,1.38,8.91,6.73,0,4.9-3.77,6.92-8.97,6.92h-4.71v7.77h-3.98v-21.43Zm8.69,9.89c4.07,0,4.96-.89,4.96-3.12s-.92-3-4.99-3h-4.68v6.12h4.71Z"/>
    <path class="cls-7" d="m567.55,856.13h3.7v21.43h-3.7v-21.43Z"/>
    <path class="cls-7" d="m581.29,861.61c4.96-.03,7.04,2.14,7.04,6.03v9.92h-3.7v-1.53c-.89.95-2.17,1.81-4.77,1.78-3.8-.06-6.49-1.71-6.49-5.14,0-4.29,4.32-4.93,8.97-4.96l2.26-.03v-.21c0-1.75-.55-2.45-3.31-2.45-2.57,0-3.24.64-3.34,2.17h-3.83c.15-3.92,2.57-5.51,7.16-5.57Zm-1.19,12.83c2.88,0,4.5-.83,4.5-2.79v-1.1l-2.05.06c-4.47.15-5.45.7-5.45,2.14,0,1.04.64,1.68,3,1.68Z"/>
    <path class="cls-7" d="m592.06,872.45v-6.8h-2.48v-3.4h2.48v-5.39h3.7v5.39h4.77v3.4h-4.77v7.01c0,2.3,2.63,1.75,4.5,1.35l.92,3.03c-1.87.61-2.82.8-4.01.8-3.83,0-4.99-2.26-5.11-5.39Z"/>
    <path class="cls-7" d="m605.19,865.59h-2.48v-3.43h2.48v-1.44c0-3.15,2.54-4.68,5.63-4.68.52,0,1.16.03,2.57.28v3.25c-.37-.03-2.05-.06-2.33-.06-1.62,0-2.14.37-2.14,2.02v.64h4.47v3.43h-4.47v11.97h-3.73v-11.97Z"/>
    <path class="cls-7" d="m614.46,869.79c0-5.11,3.4-8.17,8.54-8.17s8.45,3.06,8.45,8.11-3.34,8.17-8.54,8.17-8.45-3.09-8.45-8.11Zm8.45,4.62c3.24,0,4.74-1.78,4.74-4.68s-1.5-4.65-4.74-4.65-4.65,1.74-4.65,4.68,1.47,4.65,4.65,4.65Z"/>
    <path class="cls-7" d="m633.74,862.25h3.7v1.41c1.41-1.68,4.25-2.02,6.49-1.53l-.49,3.49c-2.75-.64-6,.06-6,2.88v9.06h-3.7v-15.3Z"/>
    <path class="cls-7" d="m645.95,862.16h3.7v1.47c1.07-1.22,2.88-2.02,4.44-2.02,2.23,0,3.73.7,4.68,2.23,1.53-1.47,3.43-2.23,5.48-2.23,3.73,0,5.85,1.96,5.85,5.63v10.32h-3.7v-9.43c0-2.02-.49-3-2.51-3-1.68,0-3.98.83-3.98,2.91v9.52h-3.73v-9.43c0-1.96-.52-3-2.48-3-2.11,0-4.04,1.41-4.04,3.55v8.88h-3.7v-15.4Z"/>
    <path class="cls-7" d="m680.17,861.61c4.96-.03,7.04,2.14,7.04,6.03v9.92h-3.7v-1.53c-.89.95-2.17,1.81-4.77,1.78-3.8-.06-6.49-1.71-6.49-5.14,0-4.29,4.32-4.93,8.97-4.96l2.26-.03v-.21c0-1.75-.55-2.45-3.31-2.45-2.57,0-3.24.64-3.34,2.17h-3.83c.15-3.92,2.57-5.51,7.16-5.57Zm-1.19,12.83c2.88,0,4.5-.83,4.5-2.79v-1.1l-2.05.06c-4.47.15-5.45.7-5.45,2.14,0,1.04.64,1.68,3,1.68Z"/>
    <path class="cls-7" d="m706.98,861.61c4.96-.03,7.04,2.14,7.04,6.03v9.92h-3.7v-1.53c-.89.95-2.17,1.81-4.77,1.78-3.8-.06-6.49-1.71-6.49-5.14,0-4.29,4.32-4.93,8.97-4.96l2.26-.03v-.21c0-1.75-.55-2.45-3.31-2.45-2.57,0-3.24.64-3.34,2.17h-3.83c.15-3.92,2.57-5.51,7.16-5.57Zm-1.19,12.83c2.88,0,4.5-.83,4.5-2.79v-1.1l-2.05.06c-4.47.15-5.45.7-5.45,2.14,0,1.04.64,1.68,3,1.68Z"/>
    <path class="cls-7" d="m725.86,862.25h3.7v1.53c.92-1.47,2.82-2.17,4.84-2.17,4.93,0,7.81,3.24,7.81,8.08s-3.12,8.2-8.11,8.2c-1.71,0-3.37-.46-4.53-1.68v6.27h-3.7v-20.23Zm8.05,12.15c2.79,0,4.44-1.47,4.44-4.71s-1.78-4.62-4.25-4.62c-2.94,0-4.56,1.65-4.56,4.01v1.19c0,2.6,1.38,4.13,4.38,4.13Z"/>
    <path class="cls-7" d="m751.63,861.61c4.96-.03,7.04,2.14,7.04,6.03v9.92h-3.7v-1.53c-.89.95-2.17,1.81-4.77,1.78-3.8-.06-6.49-1.71-6.49-5.14,0-4.29,4.32-4.93,8.97-4.96l2.26-.03v-.21c0-1.75-.55-2.45-3.31-2.45-2.57,0-3.24.64-3.34,2.17h-3.83c.15-3.92,2.57-5.51,7.16-5.57Zm-1.19,12.83c2.88,0,4.5-.83,4.5-2.79v-1.1l-2.05.06c-4.47.15-5.45.7-5.45,2.14,0,1.04.64,1.68,3,1.68Z"/>
    <path class="cls-7" d="m761.14,862.25h3.7v1.41c1.41-1.68,4.25-2.02,6.49-1.53l-.49,3.49c-2.75-.64-6,.06-6,2.88v9.06h-3.7v-15.3Z"/>
    <path class="cls-7" d="m780.49,861.61c5.14,0,8.48,3.06,8.45,8.11l-.03,1.32h-12.95c.21,2.05,1.71,3.37,4.44,3.37,2.42,0,3.76-.83,4.32-2.39h3.98c-1.04,3.98-4.19,5.88-8.29,5.88-5.23,0-8.45-3.09-8.45-8.11s3.4-8.17,8.54-8.17Zm-.09,3.46c-2.48,0-4.13,1.1-4.25,3.12h8.6c-.18-1.99-1.81-3.12-4.35-3.12Z"/>
    <path class="cls-7" d="m800.65,870.31l4.19-.06c0,2.94,1.44,3.89,5.26,3.89,3.52,0,5.14-.98,5.14-2.79,0-1.56-.49-2.14-4.29-2.66l-2.79-.4c-4.74-.64-7.56-2.3-7.56-6.34s3.34-6.21,9-6.28c6.21.06,9.21,2.66,9.03,7.29l-4.13.03c0-2.69-1.68-3.58-4.87-3.58-3.4,0-5.02.89-5.02,2.48s.64,2.05,4.01,2.54l2.94.4c5.23.77,7.81,2.57,7.81,6.55s-3.27,6.55-9.24,6.55h-.03c-6.8,0-9.7-2.91-9.46-7.62Z"/>
    <path class="cls-7" d="m821.71,856.13h3.7v7.16c1.44-1.16,3.15-1.68,4.99-1.68,4.13,0,6.31,2.14,6.31,5.91v10.04h-3.73v-9.21c0-2.11-.64-3.21-2.94-3.21-2.51,0-4.62,1.35-4.62,3.64v8.79h-3.7v-21.43Z"/>
    <path class="cls-7" d="m846.37,877.9c-4.87,0-7.77-3.21-7.77-8.11s3.15-8.17,8.05-8.17c2.02,0,3.89.86,4.56,2.08v-1.44h3.67v20.23h-3.7v-6.4c-1.22,1.19-2.79,1.81-4.81,1.81Zm.28-3.52c2.91,0,4.59-1.5,4.59-4.01v-1.13c0-2.79-1.53-4.16-4.38-4.16s-4.5,1.5-4.5,4.68,1.78,4.62,4.29,4.62Z"/>
    <path class="cls-7" d="m857.17,856.13h3.73v3.98h-3.73v-3.98Zm.03,6.03h3.7v15.4h-3.7v-15.4Z"/>
    <path class="cls-7" d="m863.23,862.25h3.7v1.53c.92-1.47,2.82-2.17,4.84-2.17,4.93,0,7.81,3.24,7.81,8.08s-3.12,8.2-8.11,8.2c-1.71,0-3.37-.46-4.53-1.68v6.27h-3.7v-20.23Zm8.05,12.15c2.79,0,4.44-1.47,4.44-4.71s-1.78-4.62-4.25-4.62c-2.94,0-4.56,1.65-4.56,4.01v1.19c0,2.6,1.38,4.13,4.38,4.13Z"/>
    <path class="cls-7" d="m890.41,861.61c5.14,0,8.48,3.06,8.45,8.11l-.03,1.32h-12.95c.21,2.05,1.71,3.37,4.44,3.37,2.42,0,3.76-.83,4.32-2.39h3.98c-1.04,3.98-4.19,5.88-8.29,5.88-5.23,0-8.45-3.09-8.45-8.11s3.4-8.17,8.54-8.17Zm-2.66-4.07c1.19,0,1.84.83,1.84,1.78,0,1.01-.64,1.78-1.84,1.78s-1.81-.8-1.81-1.78.61-1.78,1.81-1.78Zm2.57,7.53c-2.48,0-4.13,1.1-4.25,3.12h8.6c-.18-1.99-1.81-3.12-4.35-3.12Zm3.52-7.5c1.19,0,1.84.83,1.84,1.77,0,1.01-.64,1.78-1.84,1.78s-1.84-.76-1.84-1.78c0-.95.64-1.77,1.84-1.77Z"/>
    <path class="cls-7" d="m902.1,872.45v-6.8h-2.48v-3.4h2.48v-5.39h3.7v5.39h4.77v3.4h-4.77v7.01c0,2.3,2.63,1.75,4.5,1.35l.92,3.03c-1.87.61-2.82.8-4.01.8-3.83,0-4.99-2.26-5.11-5.39Z"/>
    <path class="cls-7" d="m920.34,861.61c4.96-.03,7.04,2.14,7.04,6.03v9.92h-3.7v-1.53c-.89.95-2.17,1.81-4.78,1.78-3.8-.06-6.49-1.71-6.49-5.14,0-4.29,4.32-4.93,8.97-4.96l2.26-.03v-.21c0-1.75-.55-2.45-3.31-2.45-2.57,0-3.24.64-3.34,2.17h-3.83c.15-3.92,2.57-5.51,7.16-5.57Zm-1.19,12.83c2.88,0,4.5-.83,4.5-2.79v-1.1l-2.05.06c-4.47.15-5.45.7-5.45,2.14,0,1.04.64,1.68,3,1.68Z"/>
    <path class="cls-7" d="m929.86,862.25h3.7v1.41c1.41-1.68,4.25-2.02,6.49-1.53l-.49,3.49c-2.75-.64-6,.06-6,2.88v9.06h-3.7v-15.3Z"/>
    <path class="cls-7" d="m949.2,861.61c5.14,0,8.48,3.06,8.45,8.11l-.03,1.32h-12.95c.21,2.05,1.71,3.37,4.44,3.37,2.42,0,3.76-.83,4.32-2.39h3.98c-1.04,3.98-4.19,5.88-8.29,5.88-5.23,0-8.45-3.09-8.45-8.11s3.4-8.17,8.54-8.17Zm-.09,3.46c-2.48,0-4.13,1.1-4.25,3.12h8.6c-.18-1.99-1.81-3.12-4.35-3.12Z"/>
    <path class="cls-7" d="m969.3,869.79c0-5.08,3.15-8.17,8.05-8.17,1.71,0,3.34.46,4.53,1.65v-7.13h3.7v21.43h-3.67v-1.68c-.98,1.25-2.39,1.99-4.84,2.02-4.87.03-7.77-3.21-7.77-8.11Zm8.05,4.59c2.91,0,4.59-1.5,4.59-4.01v-1.13c0-2.79-1.53-4.16-4.38-4.16s-4.5,1.5-4.5,4.68,1.78,4.62,4.29,4.62Z"/>
    <path class="cls-7" d="m996.23,861.61c5.14,0,8.48,3.06,8.45,8.11l-.03,1.32h-12.95c.21,2.05,1.71,3.37,4.44,3.37,2.42,0,3.76-.83,4.32-2.39h3.98c-1.04,3.98-4.19,5.88-8.29,5.88-5.23,0-8.45-3.09-8.45-8.11s3.4-8.17,8.54-8.17Zm-.09,3.46c-2.48,0-4.13,1.1-4.25,3.12h8.6c-.18-1.99-1.81-3.12-4.35-3.12Z"/>
    <path class="cls-7" d="m1006.48,869.79c0-5.08,3.15-8.17,8.05-8.17,1.71,0,3.34.46,4.53,1.65v-7.13h3.7v21.43h-3.67v-1.68c-.98,1.25-2.39,1.99-4.84,2.02-4.87.03-7.77-3.21-7.77-8.11Zm8.05,4.59c2.91,0,4.59-1.5,4.59-4.01v-1.13c0-2.79-1.53-4.16-4.38-4.16s-4.5,1.5-4.5,4.68,1.78,4.62,4.29,4.62Z"/>
    <path class="cls-7" d="m1025.06,856.13h3.73v3.98h-3.73v-3.98Zm.03,6.03h3.7v15.4h-3.7v-15.4Z"/>
    <path class="cls-7" d="m1031.12,856.13h3.7v11.36l7.1-5.33h5.69l-7.35,5.57,7.16,9.83h-4.53l-5.6-7.71-2.48,1.87v5.85h-3.7v-21.43Z"/>
    <path class="cls-7" d="m1049.91,871.96v-9.7h3.67v9c0,2.14.61,3.09,2.85,3.09,1.75,0,4.44-.8,4.44-3.21v-8.88h3.7v15.3h-3.67v-1.59c-1.38,1.35-2.97,1.93-4.87,1.93-3.98,0-6-2.05-6.12-5.94Z"/>
    <path class="cls-7" d="m1074.61,861.61c4.96-.03,7.04,2.14,7.04,6.03v9.92h-3.7v-1.53c-.89.95-2.17,1.81-4.78,1.78-3.8-.06-6.49-1.71-6.49-5.14,0-4.29,4.32-4.93,8.97-4.96l2.26-.03v-.21c0-1.75-.55-2.45-3.31-2.45-2.57,0-3.24.64-3.34,2.17h-3.83c.15-3.92,2.57-5.51,7.16-5.57Zm-1.19,12.83c2.88,0,4.5-.83,4.5-2.79v-1.1l-2.05.06c-4.47.15-5.45.7-5.45,2.14,0,1.04.64,1.68,3,1.68Z"/>
    <path class="cls-7" d="m1084.12,862.25h3.7v1.41c1.41-1.68,4.25-2.02,6.49-1.53l-.49,3.49c-2.75-.64-6,.06-6,2.88v9.06h-3.7v-15.3Z"/>
    <path class="cls-7" d="m1113.2,874.44c2.26,0,3.61-.37,3.61-1.53,0-.8-.31-1.47-2.85-1.81l-1.77-.24c-4.22-.55-6.15-1.47-6.15-4.47s2.63-4.78,6.98-4.78,6.83,1.9,7.16,4.87h-3.7c-.12-1.07-1.29-1.44-3.46-1.47-1.96.03-3.34.46-3.34,1.41,0,.83.46,1.29,2.72,1.59l2.02.25c4.29.52,6.15,1.59,6.15,4.65s-2.6,4.96-7.38,4.99c-4.74-.03-6.95-1.99-7.13-5.2h3.76c.12,1.16,1.1,1.71,3.37,1.75Z"/>
    <path class="cls-7" d="m1122.9,856.13h3.7v7.16c1.44-1.16,3.15-1.68,4.99-1.68,4.13,0,6.31,2.14,6.31,5.91v10.04h-3.73v-9.21c0-2.11-.64-3.21-2.94-3.21-2.51,0-4.62,1.35-4.62,3.64v8.79h-3.7v-21.43Z"/>
    <path class="cls-7" d="m1148.73,861.61c5.14,0,8.48,3.06,8.45,8.11l-.03,1.32h-12.95c.21,2.05,1.71,3.37,4.44,3.37,2.42,0,3.76-.83,4.32-2.39h3.98c-1.04,3.98-4.19,5.88-8.29,5.88-5.23,0-8.45-3.09-8.45-8.11s3.4-8.17,8.54-8.17Zm-2.66-4.07c1.19,0,1.84.83,1.84,1.78,0,1.01-.64,1.78-1.84,1.78s-1.81-.8-1.81-1.78.61-1.78,1.81-1.78Zm2.57,7.53c-2.48,0-4.13,1.1-4.25,3.12h8.6c-.18-1.99-1.81-3.12-4.35-3.12Zm3.52-7.5c1.19,0,1.84.83,1.84,1.77,0,1.01-.64,1.78-1.84,1.78s-1.84-.76-1.84-1.78c0-.95.64-1.77,1.84-1.77Z"/>
    <path class="cls-7" d="m1159.47,862.16h3.7v1.47c1.01-1.32,3.12-2.02,4.99-2.02,4.13,0,6.31,2.14,6.31,5.91v10.04h-3.73v-9.18c0-2.11-.64-3.25-2.94-3.25-1.87,0-4.62.89-4.62,3.18v9.24h-3.7v-15.4Z"/>
    <path class="cls-7" d="m1176.36,869.79c0-5.08,3.15-8.17,8.05-8.17,1.71,0,3.34.46,4.53,1.65v-7.13h3.7v21.43h-3.67v-1.68c-.98,1.25-2.39,1.99-4.84,2.02-4.87.03-7.77-3.21-7.77-8.11Zm8.05,4.59c2.91,0,4.59-1.5,4.59-4.01v-1.13c0-2.79-1.53-4.16-4.38-4.16s-4.5,1.5-4.5,4.68,1.78,4.62,4.29,4.62Z"/>
    <path class="cls-7" d="m1203.29,861.61c5.14,0,8.48,3.06,8.45,8.11l-.03,1.32h-12.95c.21,2.05,1.71,3.37,4.44,3.37,2.42,0,3.76-.83,4.32-2.39h3.98c-1.04,3.98-4.19,5.88-8.29,5.88-5.23,0-8.45-3.09-8.45-8.11s3.4-8.17,8.54-8.17Zm-.09,3.46c-2.48,0-4.13,1.1-4.25,3.12h8.6c-.18-1.99-1.81-3.12-4.35-3.12Z"/>
    <path class="cls-7" d="m1214.98,872.45v-6.8h-2.48v-3.4h2.48v-5.39h3.7v5.39h4.78v3.4h-4.78v7.01c0,2.3,2.63,1.75,4.5,1.35l.92,3.03c-1.87.61-2.82.8-4.01.8-3.83,0-4.99-2.26-5.11-5.39Z"/>
    <path class="cls-7" d="m1226.4,856.13h3.73v3.98h-3.73v-3.98Zm.03,6.03h3.7v15.4h-3.7v-15.4Z"/>
    <path class="cls-7" d="m1234.93,872.45v-6.8h-2.48v-3.4h2.48v-5.39h3.7v5.39h4.77v3.4h-4.77v7.01c0,2.3,2.63,1.75,4.5,1.35l.92,3.03c-1.87.61-2.82.8-4.01.8-3.83,0-4.99-2.26-5.11-5.39Z"/>
    <path class="cls-7" d="m1255.71,862.16h3.7v1.47c1.07-1.22,2.88-2.02,4.44-2.02,2.24,0,3.73.7,4.68,2.23,1.53-1.47,3.43-2.23,5.48-2.23,3.73,0,5.85,1.96,5.85,5.63v10.32h-3.7v-9.43c0-2.02-.49-3-2.51-3-1.68,0-3.98.83-3.98,2.91v9.52h-3.73v-9.43c0-1.96-.52-3-2.48-3-2.11,0-4.04,1.41-4.04,3.55v8.88h-3.7v-15.4Z"/>
    <path class="cls-7" d="m1290.33,861.61c5.14,0,8.48,3.06,8.45,8.11l-.03,1.32h-12.95c.21,2.05,1.71,3.37,4.44,3.37,2.42,0,3.76-.83,4.32-2.39h3.98c-1.04,3.98-4.19,5.88-8.29,5.88-5.23,0-8.45-3.09-8.45-8.11s3.4-8.17,8.54-8.17Zm-.09,3.46c-2.48,0-4.13,1.1-4.25,3.12h8.6c-.18-1.99-1.81-3.12-4.35-3.12Z"/>
    <path class="cls-7" d="m1301.07,862.16h3.7v1.47c1.01-1.32,3.12-2.02,4.99-2.02,4.13,0,6.31,2.14,6.31,5.91v10.04h-3.73v-9.18c0-2.11-.64-3.25-2.94-3.25-1.87,0-4.62.89-4.62,3.18v9.24h-3.7v-15.4Z"/>
    <path class="cls-7" d="m1317.96,869.79c0-5.08,3.15-8.17,8.05-8.17,1.71,0,3.34.46,4.53,1.65v-7.13h3.7v21.43h-3.67v-1.68c-.98,1.25-2.39,1.99-4.84,2.02-4.87.03-7.77-3.21-7.77-8.11Zm8.05,4.59c2.91,0,4.59-1.5,4.59-4.01v-1.13c0-2.79-1.53-4.16-4.38-4.16s-4.5,1.5-4.5,4.68,1.78,4.62,4.29,4.62Z"/>
    <path class="cls-7" d="m1336.54,869.79c0-5.11,3.4-8.17,8.54-8.17s8.45,3.06,8.45,8.11-3.34,8.17-8.54,8.17-8.45-3.09-8.45-8.11Zm8.45,4.62c3.24,0,4.74-1.78,4.74-4.68s-1.5-4.65-4.74-4.65-4.65,1.74-4.65,4.68,1.47,4.65,4.65,4.65Z"/>
    <path class="cls-7" d="m1355.81,862.25h3.7v1.41c1.41-1.68,4.25-2.02,6.49-1.53l-.49,3.49c-2.75-.64-6,.06-6,2.88v9.06h-3.7v-15.3Z"/>
    <path class="cls-7" d="m1372.4,876.24c0,2.54-3.89,2.54-3.89,0s3.89-2.54,3.89,0Z"/>
  </g>
  <g>
    <path class="cls-2" d="m840.53,983.73l-.35,5.44c-2.24-.12-4.49-.58-6.64-1.44-2.15-.86-4.18-2.15-5.86-3.85-1.69-1.7-2.99-3.8-3.76-6.03-.79-2.23-1.09-4.56-1.08-6.8,0-2.22.34-4.5,1.07-6.71.73-2.2,1.91-4.32,3.48-6.09,1.57-1.78,3.5-3.2,5.57-4.21,2.07-1.01,4.27-1.62,6.47-1.94l.85,5.39c-3.42.59-6.55,2.1-8.6,4.52-2.09,2.39-3.07,5.64-3.11,9.1,0,1.7.21,3.35.74,4.85.52,1.5,1.33,2.84,2.42,3.96,2.16,2.25,5.41,3.56,8.82,3.81Z"/>
    <path class="cls-2" d="m864.46,972.21c0,1.72-.35,3.45-1.02,5.05-.67,1.6-1.65,3.05-2.87,4.27-1.23,1.21-2.69,2.18-4.29,2.83-1.6.65-3.32.98-5.03.97-1.71-.01-3.43-.36-5-1.03-1.58-.67-3.02-1.65-4.21-2.86-1.2-1.21-2.15-2.66-2.79-4.24-.65-1.58-.95-3.29-.96-4.98-.01-1.69.31-3.4.95-4.98.64-1.58,1.59-3.03,2.79-4.25,1.2-1.21,2.64-2.19,4.22-2.86,1.58-.67,3.3-1.02,5.01-1.04,3.43-.04,6.89,1.36,9.32,3.8,1.22,1.22,2.2,2.67,2.87,4.27.67,1.6,1.01,3.33,1.01,5.05Zm-5.93,0c0-1.92-.76-3.79-2.12-5.16-1.35-1.37-3.22-2.18-5.16-2.2-1.94-.03-3.85.73-5.25,2.1-1.41,1.36-2.23,3.28-2.25,5.25,0,1.98.84,3.9,2.25,5.26,1.4,1.37,3.32,2.13,5.26,2.1,1.94-.02,3.82-.83,5.16-2.2,1.36-1.36,2.12-3.24,2.11-5.16Z"/>
    <path class="cls-2" d="m910.97,985.95l-6.16.31c-1.39-6.62-2.55-13.33-4.51-19.77-2.49-5.2-7.54.67-9.48,3.54,13.23,24.37-25.23,21.12-6.52-.79l-1.47-3.22c-1.57-3.58-5.92-2.46-7.13.7-2.84,6.71-4.98,13.72-7.23,20.66l-5.6-.54c2.49-7.55,4.86-15.72,8.09-22.99,3.34-7.39,14.34-7.48,17.17.37,5.16-7.52,15.97-7.74,18.22,2.22,1.63,6.31,3.29,13.17,4.62,19.52Zm-23.96-10.62c-.88,1.67-3.28,3.8-1.97,5.71,1.01.74,2.71.33,2.96-1.02.4-1.58-.46-3.22-.99-4.69Z"/>
    <path class="cls-2" d="m911.24,952.78c0-2.07,1.68-3.75,3.75-3.75s3.75,1.68,3.75,3.75-1.68,3.75-3.75,3.75-3.75-1.68-3.75-3.75Zm.87,8.66h5.76l-.15,22.37h-5.45l-.15-22.37Z"/>
    <path class="cls-2" d="m948.17,956.71l-.22,26.9-.02,2.57-2.73.15-.39.03-1.7.13-.82-1.75h0l-6.2-13.92-3.03-6.79c-.82-1.62-2.12-2.45-3.39-2.36-.63.04-1.24.3-1.71.74-.47.44-.8,1.05-.95,1.82-.04.14-.08.49-.12.78-.04.3-.08.59-.12.9-.07.61-.14,1.22-.21,1.84-.13,1.24-.25,2.49-.36,3.74-.44,5-.81,10.05-1.13,15.08l-5.44-.34c.32-5.08.68-10.13,1.12-15.22.11-1.27.23-2.54.36-3.83.06-.64.14-1.28.21-1.93.03-.32.08-.65.12-.98.05-.34.07-.62.17-1.09.32-1.72,1.18-3.48,2.57-4.77,1.37-1.3,3.22-2.11,5.12-2.23,1.9-.14,3.81.43,5.31,1.46.75.51,1.42,1.12,1.97,1.78.55.66,1.01,1.38,1.39,2.1.38.8.6,1.3.86,1.89l.77,1.73,1.55,3.46,1.42,3.18.15-15.12,5.45.05Z"/>
    <path class="cls-2" d="m976.85,979.75c-.01,3.22-.27,6.47-.96,9.7-.69,3.22-1.81,6.44-3.58,9.4-.88,1.47-1.93,2.87-3.13,4.14-1.2,1.26-2.56,2.39-4.03,3.34-2.95,1.9-6.31,3.03-9.66,3.49-3.32.46-6.69.42-9.99-.19-3.3-.59-6.49-1.75-9.41-3.35-2.92-1.59-5.57-3.62-7.9-5.94l3.74-3.77c4.01,3.96,9.08,6.8,14.53,7.73,2.71.48,5.53.5,8.26.11,2.69-.4,5.24-1.31,7.42-2.74,2.19-1.43,3.99-3.39,5.34-5.7,1.36-2.31,2.27-4.94,2.82-7.69.36-1.79.58-3.63.68-5.49-.87.63-1.81,1.16-2.8,1.56-1.6.65-3.32.98-5.03.97-1.71-.01-3.43-.36-5-1.03-1.58-.67-3.02-1.65-4.21-2.86-1.2-1.21-2.15-2.66-2.79-4.24-.65-1.58-.95-3.29-.96-4.98-.01-1.69.31-3.4.95-4.98.64-1.58,1.59-3.03,2.79-4.25,1.2-1.21,2.64-2.19,4.22-2.86,1.58-.67,3.3-1.02,5.01-1.04,3.43-.04,6.89,1.36,9.32,3.8,1.22,1.22,2.2,2.67,2.87,4.27.52,1.25.85,2.59.96,3.94.36,2.85.57,5.74.57,8.65Zm-6.44-7.54c0-1.92-.76-3.79-2.12-5.16-1.35-1.37-3.22-2.18-5.16-2.2-1.94-.03-3.85.73-5.25,2.1-1.41,1.36-2.23,3.28-2.25,5.25,0,1.98.84,3.9,2.25,5.26,1.4,1.37,3.32,2.13,5.26,2.1,1.94-.02,3.82-.83,5.16-2.2,1.36-1.36,2.12-3.24,2.11-5.16Z"/>
    <path class="cls-2" d="m994.03,982.58c2.04.3,4.09.47,5.96.28.93-.09,1.82-.27,2.59-.54.77-.27,1.42-.65,1.89-1.09.48-.44.79-.96.97-1.56.09-.3.14-.62.16-.94,0-.32-.02-.67-.08-.93-.13-.53-.33-.86-.83-1.32-.49-.44-1.27-.9-2.19-1.35-.92-.46-1.98-.93-3.12-1.58-.57-.33-1.16-.7-1.75-1.17-.59-.47-1.17-1.04-1.68-1.72-.51-.68-.92-1.47-1.18-2.29-.26-.81-.39-1.63-.43-2.41-.02-.39,0-.76.01-1.13.03-.37.06-.75.13-1.13.12-.76.34-1.52.65-2.25.6-1.47,1.62-2.75,2.75-3.72,1.15-.97,2.4-1.67,3.67-2.17,1.27-.51,2.56-.83,3.85-1.03,1.3-.2,2.6-.27,3.93-.2l-.35,5.87c-1.77-.11-3.71.16-5.29.78-.8.31-1.5.71-2.06,1.17-.55.47-.95.98-1.2,1.57-.26.57-.37,1.28-.36,2.01.03.68.17,1.12.47,1.53.3.42.87.89,1.66,1.35.79.46,1.76.91,2.82,1.45,1.06.54,2.24,1.17,3.41,2.21.58.52,1.14,1.16,1.59,1.9.45.74.78,1.58.95,2.4.18.83.22,1.6.19,2.39-.04.79-.17,1.57-.41,2.33-.46,1.52-1.38,2.95-2.54,4.01-1.16,1.06-2.51,1.77-3.83,2.23-1.33.45-2.64.69-3.92.8-2.56.22-4.97-.02-7.32-.38l.85-5.39Z"/>
    <path class="cls-2" d="m1039.53,972.21c0,1.72-.35,3.45-1.02,5.05-.66,1.6-1.65,3.05-2.87,4.27-1.23,1.21-2.69,2.18-4.29,2.83-1.59.65-3.32.98-5.03.97-1.71-.01-3.43-.36-5-1.03-1.58-.67-3.02-1.65-4.21-2.86-1.2-1.21-2.15-2.66-2.79-4.24-.65-1.58-.96-3.29-.96-4.98-.01-1.69.31-3.4.95-4.98.64-1.58,1.59-3.03,2.79-4.25,1.2-1.21,2.64-2.19,4.22-2.86,1.58-.67,3.3-1.02,5.01-1.04,3.43-.04,6.89,1.36,9.32,3.8,1.22,1.22,2.2,2.67,2.87,4.27.67,1.6,1.01,3.33,1.01,5.05Zm-5.93,0c0-1.92-.76-3.79-2.12-5.16-1.35-1.37-3.22-2.18-5.16-2.2-1.94-.03-3.85.73-5.25,2.1-1.41,1.36-2.23,3.28-2.25,5.25,0,1.98.84,3.9,2.25,5.26,1.4,1.37,3.32,2.13,5.26,2.1,1.94-.02,3.82-.83,5.16-2.2,1.36-1.36,2.12-3.24,2.11-5.16Z"/>
    <path class="cls-2" d="m1067.78,972.21c0,1.72-.35,3.45-1.02,5.05-.66,1.6-1.65,3.05-2.87,4.27-1.23,1.21-2.69,2.18-4.29,2.83-1.59.65-3.32.98-5.03.97-1.71-.01-3.43-.36-5-1.03-1.58-.67-3.02-1.65-4.21-2.86-1.2-1.21-2.15-2.66-2.79-4.24-.65-1.58-.96-3.29-.96-4.98-.01-1.69.31-3.4.95-4.98.64-1.58,1.59-3.03,2.79-4.25,1.2-1.21,2.64-2.19,4.22-2.86,1.58-.67,3.3-1.02,5.01-1.04,3.43-.04,6.89,1.36,9.32,3.8,1.22,1.22,2.2,2.67,2.87,4.27.67,1.6,1.01,3.33,1.01,5.05Zm-5.93,0c0-1.92-.76-3.79-2.12-5.16-1.35-1.37-3.22-2.18-5.16-2.2-1.94-.03-3.85.73-5.25,2.1-1.41,1.36-2.23,3.28-2.25,5.25,0,1.98.84,3.9,2.25,5.26,1.4,1.37,3.32,2.13,5.26,2.1,1.94-.02,3.82-.83,5.16-2.2,1.36-1.36,2.12-3.24,2.11-5.16Z"/>
    <path class="cls-2" d="m1097.17,956.71l-.22,26.9-.02,2.57-2.73.15-.39.03-1.7.13-.82-1.75h0l-6.2-13.92-3.03-6.79c-.82-1.62-2.12-2.45-3.39-2.36-.63.04-1.24.3-1.71.74-.47.44-.8,1.05-.95,1.82-.04.14-.08.49-.12.78-.04.3-.08.59-.12.9-.07.61-.14,1.22-.21,1.84-.13,1.24-.25,2.49-.36,3.74-.44,5-.81,10.05-1.13,15.08l-5.44-.34c.32-5.08.68-10.13,1.12-15.22.11-1.27.23-2.54.36-3.83.06-.64.14-1.28.21-1.93.03-.32.08-.65.12-.98.05-.34.07-.62.17-1.09.32-1.72,1.18-3.48,2.57-4.77,1.37-1.3,3.22-2.11,5.12-2.23,1.9-.14,3.81.43,5.31,1.46.75.51,1.42,1.12,1.97,1.78.55.66,1.01,1.38,1.39,2.1.38.8.6,1.3.86,1.89l.77,1.73,1.55,3.46,1.42,3.18.15-15.12,5.45.05Z"/>
  </g>
</svg>